<svg xmlns="http://www.w3.org/2000/svg" xmlns:xlink="http://www.w3.org/1999/xlink" xmlns:lucid="lucid" width="2120" height="1344.6"><g transform="translate(369.1680485177244 280)" lucid:page-tab-id="0_0"><path d="M430.83-254a6 6 0 0 1 6-6h228a6 6 0 0 1 6 6v68a6 6 0 0 1-6 6h-228a6 6 0 0 1-6-6z" stroke="#3a414a" fill="#009e56"/><use xlink:href="#a" transform="matrix(1,0,0,1,435.8319514822756,-255) translate(30.485555555555564 45.92666666666666)"/><path d="M-89.17 160.32a6 6 0 0 1 6-6h228a6 6 0 0 1 6 6v68a6 6 0 0 1-6 6h-228a6 6 0 0 1-6-6z" stroke="#3a414a" fill="#efa720"/><use xlink:href="#b" transform="matrix(1,0,0,1,-84.1680485177244,159.3166666666561) translate(75.25333333333333 26.24)"/><use xlink:href="#c" transform="matrix(1,0,0,1,-84.1680485177244,159.3166666666561) translate(30.36 60.266666666666666)"/><path d="M990.83 160.32a6 6 0 0 1 6-6h228a6 6 0 0 1 6 6v68a6 6 0 0 1-6 6h-228a6 6 0 0 1-6-6z" stroke="#3a414a" fill="#efa720"/><use xlink:href="#d" transform="matrix(1,0,0,1,995.8319514822756,159.3166666666561) translate(68.80000000000001 26.24)"/><use xlink:href="#e" transform="matrix(1,0,0,1,995.8319514822756,159.3166666666561) translate(30.36 60.266666666666666)"/><path d="M965.64 450.04a6 6 0 0 1 6-6h278.38a6 6 0 0 1 6 6v78a6 6 0 0 1-6 6H971.64a6 6 0 0 1-6-6z" stroke="#3a414a" fill="#fe9cb3"/><use xlink:href="#f" transform="matrix(1,0,0,1,970.6446242136581,449.03730997856235) translate(26.28888888888889 34.36666666666667)"/><use xlink:href="#g" transform="matrix(1,0,0,1,970.6446242136581,449.03730997856235) translate(145.22222222222223 34.36666666666667)"/><use xlink:href="#h" transform="matrix(1,0,0,1,970.6446242136581,449.03730997856235) translate(56.8111111111111 62.72222222222222)"/><path d="M1366.34 455.04a6 6 0 0 1 6-6h352.5a6 6 0 0 1 6 6v68a6 6 0 0 1-6 6h-352.5a6 6 0 0 1-6-6z" stroke="#3a414a" fill="#fe9cb3"/><use xlink:href="#i" transform="matrix(1,0,0,1,1371.3360970354493,454.03730997856235) translate(135.57777777777778 43.74166666666667)"/><path d="M590.83 450.04a6 6 0 0 1 6-6h268a6 6 0 0 1 6 6v78a6 6 0 0 1-6 6h-268a6 6 0 0 1-6-6z" stroke="#3a414a" fill="#fe9cb3"/><use xlink:href="#j" transform="matrix(1,0,0,1,595.8319514822756,449.03730997856235) translate(6.444444444444429 46.86666666666667)"/><use xlink:href="#k" transform="matrix(1,0,0,1,595.8319514822756,449.03730997856235) translate(12.088888888888874 46.86666666666667)"/><use xlink:href="#l" transform="matrix(1,0,0,1,595.8319514822756,449.03730997856235) translate(119.33333333333333 46.86666666666667)"/><use xlink:href="#m" transform="matrix(1,0,0,1,595.8319514822756,449.03730997856235) translate(165.6888888888889 46.86666666666667)"/><path d="M430.83 137.1a6 6 0 0 1 6-6h228a6 6 0 0 1 6 6v78a6 6 0 0 1-6 6h-228a6 6 0 0 1-6-6z" stroke="#3a414a" fill="#fe9cb3"/><use xlink:href="#n" transform="matrix(1,0,0,1,435.8319514822756,136.08507960347384) translate(62.17777777777776 46.86666666666667)"/><path d="M-349.17 326a6 6 0 0 1 6-6h288a6 6 0 0 1 6 6v68a6 6 0 0 1-6 6h-288a6 6 0 0 1-6-6z" stroke="#3a414a" fill="#fe9cb3"/><use xlink:href="#o" transform="matrix(1,0,0,1,-344.1680485177244,325) translate(49.44444444444444 43.74166666666667)"/><use xlink:href="#p" transform="matrix(1,0,0,1,-344.1680485177244,325) translate(128.86666666666667 43.74166666666667)"/><path d="M50.83 344.57a6 6 0 0 1 6-6h368a6 6 0 0 1 6 6v78a6 6 0 0 1-6 6h-368a6 6 0 0 1-6-6z" stroke="#3a414a" fill="#efa720"/><use xlink:href="#q" transform="matrix(1,0,0,1,55.8319514822756,343.5741358521977) translate(17.077777777777783 36.86666666666667)"/><use xlink:href="#r" transform="matrix(1,0,0,1,55.8319514822756,343.5741358521977) translate(178.4111111111111 36.86666666666667)"/><use xlink:href="#s" transform="matrix(1,0,0,1,55.8319514822756,343.5741358521977) translate(266.18888888888887 36.86666666666667)"/><use xlink:href="#t" transform="matrix(1,0,0,1,55.8319514822756,343.5741358521977) translate(70.73333333333336 60.84888888888888)"/><use xlink:href="#u" transform="matrix(1,0,0,1,55.8319514822756,343.5741358521977) translate(143.46222222222224 60.84888888888888)"/><path d="M-199.17 319.04v-35.88a6 6 0 0 1 6-6h218a6 6 0 0 0 6-6v-35.88" stroke="#3a414a" fill="none"/><path d="M-198.67 319.54h-1v-.52h1zM31.33 235.3h-1v-.52h1z" stroke="#3a414a" stroke-width=".05" fill="#3a414a"/><path d="M550.83-179.04v160.2a6 6 0 0 1-6 6h-508a6 6 0 0 0-6 6v160.2" stroke="#3a414a" fill="none"/><path d="M551.33-179.02h-1v-.52h1zM31.33 153.85h-1v-.5h1z" stroke="#3a414a" stroke-width=".05" fill="#3a414a"/><path d="M1110.83 153.35V-6.85a6 6 0 0 0-6-6h-548a6 6 0 0 1-6-6v-160.2" stroke="#3a414a" fill="none"/><path d="M1111.33 153.85h-1v-.5h1zM551.33-179.02h-1v-.52h1z" stroke="#3a414a" stroke-width=".05" fill="#3a414a"/><path d="M730.83 443.07v-97.9a6 6 0 0 1 6-6h368a6 6 0 0 0 6-6v-97.9" stroke="#3a414a" fill="none"/><path d="M731.33 443.57h-1v-.5h1zM1111.33 235.3h-1v-.52h1z" stroke="#3a414a" stroke-width=".05" fill="#3a414a"/><path d="M1110.83 443.07v-207.8" stroke="#3a414a" fill="none"/><path d="M1111.33 443.57h-1v-.5h1zM1111.33 235.3h-1v-.52h1z" stroke="#3a414a" stroke-width=".05" fill="#3a414a"/><path d="M1548.58 448.07v-100.4a6 6 0 0 0-6-6h-424.25a6 6 0 0 1-6-6v-100.4" stroke="#3a414a" fill="none"/><path d="M1549.08 448.57h-1v-.5h1zM1112.83 235.3h-1v-.52h1z" stroke="#3a414a" stroke-width=".05" fill="#3a414a"/><path d="M1151.58 594.54a6 6 0 0 1 6-6h228a6 6 0 0 1 6 6v68a6 6 0 0 1-6 6h-228a6 6 0 0 1-6-6z" stroke="#3a414a" fill="#fe9cb3"/><use xlink:href="#v" transform="matrix(1,0,0,1,1156.581260556747,593.5373099785625) translate(65.23333333333333 43.74166666666667)"/><path d="M1151.58 715.54a6 6 0 0 1 6-6h228a6 6 0 0 1 6 6v68a6 6 0 0 1-6 6h-228a6 6 0 0 1-6-6z" stroke="#3a414a" fill="#fe9cb3"/><use xlink:href="#w" transform="matrix(1,0,0,1,1156.581260556747,714.5373099785623) translate(10.055555555555571 43.74166666666667)"/><use xlink:href="#x" transform="matrix(1,0,0,1,1156.581260556747,714.5373099785623) translate(115.65555555555557 43.74166666666667)"/><path d="M1150.62 628.54h-34.4a6 6 0 0 1-6-6V535" stroke="#3a414a" fill="none"/><path d="M1151.12 629.04h-.52v-1h.52zM1110.73 535h-1v-.5h1z" stroke="#3a414a" stroke-width=".05" fill="#3a414a"/><path d="M1150.62 749.54h-33.8a6 6 0 0 1-6-6V535" stroke="#3a414a" fill="none"/><path d="M1151.12 750.04h-.52v-1h.52zM1111.33 535h-1v-.5h1z" stroke="#3a414a" stroke-width=".05" fill="#3a414a"/><path d="M1151.58 955.54a6 6 0 0 1 6-6h228a6 6 0 0 1 6 6v83.06a6 6 0 0 1-6 6h-228a6 6 0 0 1-6-6z" stroke="#3a414a" fill="#fe9cb3"/><use xlink:href="#y" transform="matrix(1,0,0,1,1156.581260556747,954.5373099786044) translate(71.63333333333333 35.30416666666667)"/><use xlink:href="#z" transform="matrix(1,0,0,1,1156.581260556747,954.5373099786044) translate(44.28888888888888 63.65972222222222)"/><path d="M240.83 337.6v-57.56a6 6 0 0 0-6-6h-198a6 6 0 0 1-6-6v-32.76" stroke="#3a414a" fill="none"/><path d="M241.33 338.1h-1v-.5h1zM31.33 235.3h-1v-.52h1z" stroke="#3a414a" stroke-width=".05" fill="#3a414a"/><path d="M1151.58 828a6 6 0 0 1 6-6h228a6 6 0 0 1 6 6v83.07a6 6 0 0 1-6 6h-228a6 6 0 0 1-6-6z" stroke="#3a414a" fill="#fe9cb3"/><use xlink:href="#A" transform="matrix(1,0,0,1,1156.581260556747,827.00397664525) translate(17.988888888888894 51.42916666666667)"/><use xlink:href="#B" transform="matrix(1,0,0,1,1156.581260556747,827.00397664525) translate(112.5888888888889 51.42916666666667)"/><path d="M1150.62 869.54h-33.8a6 6 0 0 1-6-6V535" stroke="#3a414a" fill="none"/><path d="M1151.12 870.04h-.5v-1h.5zM1111.33 535h-1v-.5h1z" stroke="#3a414a" stroke-width=".05" fill="#3a414a"/><path d="M550.83 130.12v-309.16" stroke="#3a414a" fill="none"/><path d="M551.33 130.62h-1v-.5h1zM551.33-179.02h-1v-.52h1z" stroke="#3a414a" stroke-width=".05" fill="#3a414a"/><path d="M550.83 222.05v33.5a6 6 0 0 0 6 6h387.54a6 6 0 0 0 6-6v-55.23a6 6 0 0 1 6-6h17.6" stroke="#3a414a" fill="none"/><path d="M551.33 222.06h-1v-.5h1z" stroke="#3a414a" stroke-width=".05" fill="#3a414a"/><path d="M988.75 194.32l-14.27 4.63v-9.27z" stroke="#3a414a" fill="#3a414a"/><path d="M550.83 222.05v33.5a6 6 0 0 1-6 6H197.3a6 6 0 0 1-6-6v-55.23a6 6 0 0 0-6-6h-17.62" stroke="#3a414a" fill="none"/><path d="M551.33 222.06h-1v-.5h1z" stroke="#3a414a" stroke-width=".05" fill="#3a414a"/><path d="M152.9 194.32l14.28-4.64v9.27z" stroke="#3a414a" fill="#3a414a"/><path d="M270.83 589.54a6 6 0 0 1 6-6h228a6 6 0 0 1 6 6v78a6 6 0 0 1-6 6h-228a6 6 0 0 1-6-6z" stroke="#3a414a" fill="#efa720"/><use xlink:href="#C" transform="matrix(1,0,0,1,275.8319514822756,588.5373099785625) translate(13.900000000000006 34.36666666666667)"/><use xlink:href="#D" transform="matrix(1,0,0,1,275.8319514822756,588.5373099785625) translate(139.96666666666667 34.36666666666667)"/><use xlink:href="#E" transform="matrix(1,0,0,1,275.8319514822756,588.5373099785625) translate(33.31111111111109 62.72222222222222)"/><path d="M270.83 479.8a6 6 0 0 1 6-6h228a6 6 0 0 1 6 6v68a6 6 0 0 1-6 6h-228a6 6 0 0 1-6-6z" stroke="#3a414a" fill="#efa720"/><use xlink:href="#F" transform="matrix(1,0,0,1,275.8319514822756,478.80572291538) translate(21.54444444444445 28.429166666666667)"/><use xlink:href="#D" transform="matrix(1,0,0,1,275.8319514822756,478.80572291538) translate(132.32222222222225 28.429166666666667)"/><use xlink:href="#E" transform="matrix(1,0,0,1,275.8319514822756,478.80572291538) translate(33.31111111111109 56.78472222222222)"/><path d="M270.83 835.54a6 6 0 0 1 6-6h228a6 6 0 0 1 6 6v68a6 6 0 0 1-6 6h-228a6 6 0 0 1-6-6z" stroke="#3a414a" fill="#efa720"/><use xlink:href="#G" transform="matrix(1,0,0,1,275.8319514822756,834.5373099785833) translate(57.15555555555556 28.429166666666667)"/><use xlink:href="#D" transform="matrix(1,0,0,1,275.8319514822756,834.5373099785833) translate(96.71111111111111 28.429166666666667)"/><use xlink:href="#E" transform="matrix(1,0,0,1,275.8319514822756,834.5373099785833) translate(33.31111111111109 56.78472222222222)"/><path d="M240.83 429.54v193a6 6 0 0 0 6 6h23.04" stroke="#3a414a" fill="none"/><path d="M241.33 429.55h-1v-.5h1zM270.37 629.04h-.5v-1h.5z" stroke="#3a414a" stroke-width=".05" fill="#3a414a"/><path d="M240.83 429.54v78.27a6 6 0 0 0 6 6h23.04" stroke="#3a414a" fill="none"/><path d="M241.33 429.55h-1v-.5h1zM270.37 514.3h-.5v-1h.5z" stroke="#3a414a" stroke-width=".05" fill="#3a414a"/><path d="M240.83 429.54v434a6 6 0 0 0 6 6h23.04" stroke="#3a414a" fill="none"/><path d="M241.33 429.55h-1v-.5h1zM270.37 870.04h-.5v-1h.5z" stroke="#3a414a" stroke-width=".05" fill="#3a414a"/><path d="M720-134a6 6 0 0 1 6-6h228a6 6 0 0 1 6 6v71.72a6 6 0 0 1-6 6H726a6 6 0 0 1-6-6z" stroke="#3a414a" fill="#1865c6"/><g><use xlink:href="#H" transform="matrix(1,0,0,1,725,-135) translate(85.43222222222222 28.426666666666662)"/><use xlink:href="#I" transform="matrix(1,0,0,1,725,-135) translate(30.485555555555564 65.28888888888888)"/></g><path d="M719.04-98.14h-162.2a6 6 0 0 1-6-6v-74.9" stroke="#3a414a" fill="none"/><path d="M719.54-97.64h-.52v-1h.52zM551.33-179.02h-1v-.52h1z" stroke="#3a414a" stroke-width=".05" fill="#3a414a"/><path d="M1150.62 997.07h-33.8a6 6 0 0 1-6-6V535" stroke="#3a414a" fill="none"/><path d="M1151.12 997.57h-.5v-1h.5zM1111.33 535h-1v-.5h1z" stroke="#3a414a" stroke-width=".05" fill="#3a414a"/><path d="M270.83 708a6 6 0 0 1 6-6h228a6 6 0 0 1 6 6v83.07a6 6 0 0 1-6 6h-228a6 6 0 0 1-6-6z" stroke="#3a414a" fill="#efa720"/><g><use xlink:href="#J" transform="matrix(1,0,0,1,275.8319514822756,707.003976645229) translate(30.855555555555554 21.866666666666667)"/><use xlink:href="#K" transform="matrix(1,0,0,1,275.8319514822756,707.003976645229) translate(114.61111111111111 21.866666666666667)"/><use xlink:href="#D" transform="matrix(1,0,0,1,275.8319514822756,707.003976645229) translate(76.93333333333334 50.22222222222222)"/><use xlink:href="#E" transform="matrix(1,0,0,1,275.8319514822756,707.003976645229) translate(33.31111111111109 78.57777777777778)"/></g><path d="M269.87 749.54h-23.04a6 6 0 0 1-6-6v-314" stroke="#3a414a" fill="none"/><path d="M270.37 750.04h-.5v-1h.5zM241.33 429.55h-1v-.5h1z" stroke="#3a414a" stroke-width=".05" fill="#3a414a"/><defs><path fill="#fff" d="M602-264c6 175-98 280-270 278C159 15 47-89 50-266v-168c-3-177 109-281 282-280 170-2 273 101 270 270H472c3-92-46-154-140-152-94-1-150 65-150 160v172c-1 94 56 161 150 160 96 2 145-64 140-160h130" id="L"/><path fill="#fff" d="M318-398c-82 0-122 60-122 146V0H70v-700h126v265h18c24-44 70-70 143-69 123 4 193 83 193 208V0H424v-286c1-72-36-112-106-112" id="M"/><path fill="#fff" d="M368-67c-20 49-66 83-144 81C117 11 38-38 38-145c0-158 162-162 328-155 6-71-23-109-92-108-61-1-89 30-100 77L58-370c29-86 100-140 218-140 127-1 212 65 212 191v185c-3 37 35 30 68 30V0c-79 2-168 8-169-67h-19zm-204-82c1 41 35 62 82 61 70 1 125-44 120-118-79 6-200-25-202 57" id="N"/><path fill="#fff" d="M70 0v-496h126V0H70zm144-634c1 47-35 81-81 80-45 1-83-34-81-80-2-46 36-81 81-80 46-1 82 33 81 80" id="O"/><path fill="#fff" d="M368-386c-97-8-172 12-172 104V0H70v-496h124v56h18c16-56 81-62 156-58v112" id="P"/><path fill="#fff" d="M368 14c-77 1-125-27-154-71h-18v257H70v-696h124v60h18c28-44 75-77 156-74 147 8 227 109 224 270C590-89 510 7 368 14zM194-253c0 96 51 156 136 157 86-1 136-61 136-157 0-89-54-146-136-147-82 1-136 58-136 147" id="Q"/><path fill="#fff" d="M519-116C478-45 414 17 296 14 136 9 44-88 46-254c2-158 92-256 248-256 167 0 250 117 241 299H174c1 66 58 116 126 115 67 3 95-34 116-74zM407-305c-5-57-50-96-114-95-67-1-109 38-118 95h232" id="R"/><path fill="#fff" d="M484-149c0 111-92 164-208 163C151 15 59-42 42-148l116-30c11 61 50 87 118 92 65 5 114-51 66-90-107-43-282-32-282-181 0-157 224-189 334-116 37 25 61 57 72 97l-117 36c-9-47-41-65-93-70-60-6-100 50-54 82 110 43 282 27 282 179" id="S"/><path fill="#fff" d="M566-256c3 172-96 270-260 270S43-84 46-256c3-161 101-254 260-254s257 93 260 254zm-394 3c0 94 50 154 134 155 84-1 134-61 134-155 0-88-52-145-134-145-81 0-134 58-134 145" id="T"/><path fill="#fff" d="M318-398c-82 0-122 60-122 146V0H70v-496h124v65h18c23-43 68-76 145-73 123 4 193 83 193 208V0H424v-286c1-72-36-112-106-112" id="U"/><g id="a"><use transform="matrix(0.028888888888888884,0,0,0.028888888888888884,0,0)" xlink:href="#L"/><use transform="matrix(0.028888888888888884,0,0,0.028888888888888884,18.604444444444443,0)" xlink:href="#M"/><use transform="matrix(0.028888888888888884,0,0,0.028888888888888884,36.39999999999999,0)" xlink:href="#N"/><use transform="matrix(0.028888888888888884,0,0,0.028888888888888884,53.097777777777765,0)" xlink:href="#O"/><use transform="matrix(0.028888888888888884,0,0,0.028888888888888884,60.78222222222221,0)" xlink:href="#P"/><use transform="matrix(0.028888888888888884,0,0,0.028888888888888884,72.2222222222222,0)" xlink:href="#Q"/><use transform="matrix(0.028888888888888884,0,0,0.028888888888888884,90.65333333333331,0)" xlink:href="#R"/><use transform="matrix(0.028888888888888884,0,0,0.028888888888888884,107.3222222222222,0)" xlink:href="#P"/><use transform="matrix(0.028888888888888884,0,0,0.028888888888888884,118.41555555555554,0)" xlink:href="#S"/><use transform="matrix(0.028888888888888884,0,0,0.028888888888888884,133.5533333333333,0)" xlink:href="#T"/><use transform="matrix(0.028888888888888884,0,0,0.028888888888888884,151.23333333333332,0)" xlink:href="#U"/></g><path fill="#fff" d="M228 0v-580H24v-120h540v120H360V0H228" id="V"/><path fill="#fff" d="M70 0v-700h126V0H70" id="W"/><path fill="#fff" d="M260 0c-65 1-110-46-110-112v-280H26v-104h124v-154h126v154h136v104H276v258c0 52 80 22 124 30V0H260" id="X"/><g id="b"><use transform="matrix(0.026666666666666665,0,0,0.026666666666666665,0,0)" xlink:href="#V"/><use transform="matrix(0.026666666666666665,0,0,0.026666666666666665,13.386666666666667,0)" xlink:href="#N"/><use transform="matrix(0.026666666666666665,0,0,0.026666666666666665,28.799999999999997,0)" xlink:href="#W"/><use transform="matrix(0.026666666666666665,0,0,0.026666666666666665,35.89333333333333,0)" xlink:href="#R"/><use transform="matrix(0.026666666666666665,0,0,0.026666666666666665,51.279999999999994,0)" xlink:href="#U"/><use transform="matrix(0.026666666666666665,0,0,0.026666666666666665,67.33333333333333,0)" xlink:href="#X"/></g><path fill="#fff" d="M66 0v-700h245L432-90h18l121-610h245V0H688v-603h-18L550 0H332L212-603h-18V0H66" id="Y"/><path fill="#fff" d="M272 2C126-6 43-103 46-262c2-148 85-241 226-248 80-3 126 33 154 74h18v-60h124V88c1 66-44 113-110 112H126V90h288c19 0 28-10 28-30V-69h-18C396-26 349 3 272 2zM172-259c0 92 53 150 136 151 83 0 136-59 136-151 0-86-55-141-136-141-80 0-136 56-136 141" id="Z"/><path fill="#fff" d="M286-399c-61 0-91 42-90 106V0H70v-496h124v54h18c20-36 62-64 122-62 70-1 110 30 134 74h18c25-44 63-75 136-74 106 4 165 67 166 178V0H662v-317c1-53-28-82-80-82-61 0-91 42-90 106V0H366v-317c1-53-28-82-80-82" id="aa"/><g id="c"><use transform="matrix(0.026666666666666665,0,0,0.026666666666666665,0,0)" xlink:href="#Y"/><use transform="matrix(0.026666666666666665,0,0,0.026666666666666665,23.52,0)" xlink:href="#N"/><use transform="matrix(0.026666666666666665,0,0,0.026666666666666665,38.93333333333333,0)" xlink:href="#U"/><use transform="matrix(0.026666666666666665,0,0,0.026666666666666665,55.36,0)" xlink:href="#N"/><use transform="matrix(0.026666666666666665,0,0,0.026666666666666665,70.50666666666666,0)" xlink:href="#Z"/><use transform="matrix(0.026666666666666665,0,0,0.026666666666666665,87.52,0)" xlink:href="#R"/><use transform="matrix(0.026666666666666665,0,0,0.026666666666666665,102.90666666666667,0)" xlink:href="#aa"/><use transform="matrix(0.026666666666666665,0,0,0.026666666666666665,125.68000000000002,0)" xlink:href="#R"/><use transform="matrix(0.026666666666666665,0,0,0.026666666666666665,141.06666666666666,0)" xlink:href="#U"/><use transform="matrix(0.026666666666666665,0,0,0.026666666666666665,157.12,0)" xlink:href="#X"/></g><path fill="#fff" d="M578-485c2 145-85 229-224 229H198V0H66v-700h288c136 4 222 79 224 215zm-132 12c0-68-41-107-105-107H198v204h143c61 1 105-37 105-97" id="ab"/><path fill="#fff" d="M198 88c1 66-44 113-110 112H-22V92c38-4 94 16 94-30v-558h126V88zm18-722c1 47-35 81-81 80-45 1-83-34-81-80-2-46 36-81 81-80 46-1 82 33 81 80" id="ac"/><path fill="#fff" d="M552-176C522-64 445 14 303 14 142 14 43-84 46-255c3-161 100-255 257-255 141 0 221 76 246 192l-122 26c-10-64-47-106-121-106-89 3-136 59-134 155 2 89 48 142 134 145 76 1 113-44 124-107" id="ad"/><g id="d"><use transform="matrix(0.026666666666666665,0,0,0.026666666666666665,0,0)" xlink:href="#ab"/><use transform="matrix(0.026666666666666665,0,0,0.026666666666666665,16.106666666666666,0)" xlink:href="#P"/><use transform="matrix(0.026666666666666665,0,0,0.026666666666666665,26.186666666666664,0)" xlink:href="#T"/><use transform="matrix(0.026666666666666665,0,0,0.026666666666666665,42.50666666666666,0)" xlink:href="#ac"/><use transform="matrix(0.026666666666666665,0,0,0.026666666666666665,49.65333333333333,0)" xlink:href="#R"/><use transform="matrix(0.026666666666666665,0,0,0.026666666666666665,65.03999999999999,0)" xlink:href="#ad"/><use transform="matrix(0.026666666666666665,0,0,0.026666666666666665,80.24,0)" xlink:href="#X"/></g><g id="e"><use transform="matrix(0.026666666666666665,0,0,0.026666666666666665,0,0)" xlink:href="#Y"/><use transform="matrix(0.026666666666666665,0,0,0.026666666666666665,23.52,0)" xlink:href="#N"/><use transform="matrix(0.026666666666666665,0,0,0.026666666666666665,38.93333333333333,0)" xlink:href="#U"/><use transform="matrix(0.026666666666666665,0,0,0.026666666666666665,55.36,0)" xlink:href="#N"/><use transform="matrix(0.026666666666666665,0,0,0.026666666666666665,70.50666666666666,0)" xlink:href="#Z"/><use transform="matrix(0.026666666666666665,0,0,0.026666666666666665,87.52,0)" xlink:href="#R"/><use transform="matrix(0.026666666666666665,0,0,0.026666666666666665,102.90666666666667,0)" xlink:href="#aa"/><use transform="matrix(0.026666666666666665,0,0,0.026666666666666665,125.68000000000002,0)" xlink:href="#R"/><use transform="matrix(0.026666666666666665,0,0,0.026666666666666665,141.06666666666666,0)" xlink:href="#U"/><use transform="matrix(0.026666666666666665,0,0,0.026666666666666665,157.12,0)" xlink:href="#X"/></g><path fill="#fff" d="M66 0v-700h132V0H66" id="ae"/><path fill="#fff" d="M426-60c-29 43-75 77-156 74C124 6 43-95 46-256c3-151 82-247 224-254 76-1 127 26 154 71h18v-261h126V0H444v-60h-18zM172-253c0 96 51 156 136 157 85-1 136-61 136-157 0-90-53-146-136-147-82 1-136 58-136 147" id="af"/><g id="f"><use transform="matrix(0.022222222222222223,0,0,0.022222222222222223,0,0)" xlink:href="#ae"/><use transform="matrix(0.022222222222222223,0,0,0.022222222222222223,5.866666666666667,0)" xlink:href="#U"/><use transform="matrix(0.022222222222222223,0,0,0.022222222222222223,19.244444444444447,0)" xlink:href="#X"/><use transform="matrix(0.022222222222222223,0,0,0.022222222222222223,28.977777777777778,0)" xlink:href="#R"/><use transform="matrix(0.022222222222222223,0,0,0.022222222222222223,41.800000000000004,0)" xlink:href="#Z"/><use transform="matrix(0.022222222222222223,0,0,0.022222222222222223,55.97777777777778,0)" xlink:href="#P"/><use transform="matrix(0.022222222222222223,0,0,0.022222222222222223,64.51111111111112,0)" xlink:href="#N"/><use transform="matrix(0.022222222222222223,0,0,0.022222222222222223,76.55555555555557,0)" xlink:href="#X"/><use transform="matrix(0.022222222222222223,0,0,0.022222222222222223,86.28888888888889,0)" xlink:href="#R"/><use transform="matrix(0.022222222222222223,0,0,0.022222222222222223,99.11111111111111,0)" xlink:href="#af"/></g><path fill="#fff" d="M70 0v-700h126v387h18l164-183h164L313-256 550 0H388L214-197h-18V0H70" id="ag"/><g id="g"><use transform="matrix(0.022222222222222223,0,0,0.022222222222222223,0,0)" xlink:href="#Y"/><use transform="matrix(0.022222222222222223,0,0,0.022222222222222223,19.6,0)" xlink:href="#N"/><use transform="matrix(0.022222222222222223,0,0,0.022222222222222223,32.44444444444444,0)" xlink:href="#P"/><use transform="matrix(0.022222222222222223,0,0,0.022222222222222223,41.24444444444444,0)" xlink:href="#ag"/><use transform="matrix(0.022222222222222223,0,0,0.022222222222222223,53.1111111111111,0)" xlink:href="#R"/><use transform="matrix(0.022222222222222223,0,0,0.022222222222222223,65.57777777777778,0)" xlink:href="#X"/><use transform="matrix(0.022222222222222223,0,0,0.022222222222222223,75.71111111111111,0)" xlink:href="#O"/><use transform="matrix(0.022222222222222223,0,0,0.022222222222222223,81.62222222222222,0)" xlink:href="#U"/><use transform="matrix(0.022222222222222223,0,0,0.022222222222222223,95.31111111111109,0)" xlink:href="#Z"/></g><path fill="#fff" d="M404-65c-23 41-68 77-145 73C136 4 66-76 66-200v-296h126v286c-1 72 36 112 106 112 82 0 122-60 122-146v-252h126V0H422v-65h-18" id="ah"/><g id="h"><use transform="matrix(0.022222222222222223,0,0,0.022222222222222223,0,0)" xlink:href="#L"/><use transform="matrix(0.022222222222222223,0,0,0.022222222222222223,14.311111111111112,0)" xlink:href="#T"/><use transform="matrix(0.022222222222222223,0,0,0.022222222222222223,27.91111111111111,0)" xlink:href="#aa"/><use transform="matrix(0.022222222222222223,0,0,0.022222222222222223,46.88888888888889,0)" xlink:href="#aa"/><use transform="matrix(0.022222222222222223,0,0,0.022222222222222223,65.68888888888888,0)" xlink:href="#ah"/><use transform="matrix(0.022222222222222223,0,0,0.022222222222222223,79.37777777777777,0)" xlink:href="#U"/><use transform="matrix(0.022222222222222223,0,0,0.022222222222222223,93.06666666666668,0)" xlink:href="#O"/><use transform="matrix(0.022222222222222223,0,0,0.022222222222222223,98.97777777777779,0)" xlink:href="#ad"/><use transform="matrix(0.022222222222222223,0,0,0.022222222222222223,112,0)" xlink:href="#N"/><use transform="matrix(0.022222222222222223,0,0,0.022222222222222223,124.04444444444445,0)" xlink:href="#X"/><use transform="matrix(0.022222222222222223,0,0,0.022222222222222223,134.17777777777778,0)" xlink:href="#O"/><use transform="matrix(0.022222222222222223,0,0,0.022222222222222223,140.0888888888889,0)" xlink:href="#T"/><use transform="matrix(0.022222222222222223,0,0,0.022222222222222223,153.6888888888889,0)" xlink:href="#U"/></g><path fill="#fff" d="M66 0v-700h440v120H198v169h284v120H198V0H66" id="ai"/><g id="i"><use transform="matrix(0.022222222222222223,0,0,0.022222222222222223,0,0)" xlink:href="#ai"/><use transform="matrix(0.022222222222222223,0,0,0.022222222222222223,11.866666666666667,0)" xlink:href="#O"/><use transform="matrix(0.022222222222222223,0,0,0.022222222222222223,17.77777777777778,0)" xlink:href="#U"/><use transform="matrix(0.022222222222222223,0,0,0.022222222222222223,31.46666666666667,0)" xlink:href="#N"/><use transform="matrix(0.022222222222222223,0,0,0.022222222222222223,44.31111111111112,0)" xlink:href="#U"/><use transform="matrix(0.022222222222222223,0,0,0.022222222222222223,58,0)" xlink:href="#ad"/><use transform="matrix(0.022222222222222223,0,0,0.022222222222222223,71.02222222222223,0)" xlink:href="#R"/></g><g id="k"><use transform="matrix(0.022222222222222223,0,0,0.022222222222222223,0,0)" xlink:href="#ab"/><use transform="matrix(0.022222222222222223,0,0,0.022222222222222223,13.422222222222222,0)" xlink:href="#P"/><use transform="matrix(0.022222222222222223,0,0,0.022222222222222223,21.822222222222223,0)" xlink:href="#T"/><use transform="matrix(0.022222222222222223,0,0,0.022222222222222223,35.422222222222224,0)" xlink:href="#Z"/><use transform="matrix(0.022222222222222223,0,0,0.022222222222222223,49.6,0)" xlink:href="#P"/><use transform="matrix(0.022222222222222223,0,0,0.022222222222222223,58.13333333333333,0)" xlink:href="#N"/><use transform="matrix(0.022222222222222223,0,0,0.022222222222222223,70.97777777777779,0)" xlink:href="#aa"/><use transform="matrix(0.022222222222222223,0,0,0.022222222222222223,89.95555555555556,0)" xlink:href="#S"/></g><g id="l"><use transform="matrix(0.022222222222222223,0,0,0.022222222222222223,0,0)" xlink:href="#N"/><use transform="matrix(0.022222222222222223,0,0,0.022222222222222223,12.844444444444445,0)" xlink:href="#U"/><use transform="matrix(0.022222222222222223,0,0,0.022222222222222223,26.533333333333335,0)" xlink:href="#af"/></g><path fill="#fff" d="M66 0v-700h132v580h320V0H66" id="aj"/><g id="m"><use transform="matrix(0.022222222222222223,0,0,0.022222222222222223,0,0)" xlink:href="#aj"/><use transform="matrix(0.022222222222222223,0,0,0.022222222222222223,12.044444444444444,0)" xlink:href="#T"/><use transform="matrix(0.022222222222222223,0,0,0.022222222222222223,25.644444444444446,0)" xlink:href="#Z"/><use transform="matrix(0.022222222222222223,0,0,0.022222222222222223,39.82222222222222,0)" xlink:href="#O"/><use transform="matrix(0.022222222222222223,0,0,0.022222222222222223,45.733333333333334,0)" xlink:href="#S"/><use transform="matrix(0.022222222222222223,0,0,0.022222222222222223,57.15555555555556,0)" xlink:href="#X"/><use transform="matrix(0.022222222222222223,0,0,0.022222222222222223,67.28888888888889,0)" xlink:href="#O"/><use transform="matrix(0.022222222222222223,0,0,0.022222222222222223,73.2,0)" xlink:href="#ad"/><use transform="matrix(0.022222222222222223,0,0,0.022222222222222223,86.22222222222223,0)" xlink:href="#S"/></g><path fill="#fff" d="M574-202C574-56 461 14 309 14 138 14 27-74 34-256h130c-10 105 49 154 145 154 78 2 135-30 135-96 0-82-92-84-164-103-121-32-230-63-230-209 0-140 103-204 247-204 164 0 268 81 259 258H426c9-99-38-142-129-142-88 0-142 57-103 128 52 60 190 59 262 97 66 35 118 77 118 171" id="ak"/><path fill="#fff" d="M546 88c1 66-44 113-110 112H124V90h270c19 0 28-10 28-30V-65h-18C380-19 334 9 259 8 136 4 66-76 66-200v-296h126v286c-1 72 36 112 106 112 82 0 122-60 122-146v-252h126V88" id="al"/><g id="n"><use transform="matrix(0.022222222222222223,0,0,0.022222222222222223,0,0)" xlink:href="#ak"/><use transform="matrix(0.022222222222222223,0,0,0.022222222222222223,13.466666666666667,0)" xlink:href="#R"/><use transform="matrix(0.022222222222222223,0,0,0.022222222222222223,26.28888888888889,0)" xlink:href="#ad"/><use transform="matrix(0.022222222222222223,0,0,0.022222222222222223,39.31111111111112,0)" xlink:href="#P"/><use transform="matrix(0.022222222222222223,0,0,0.022222222222222223,47.71111111111112,0)" xlink:href="#R"/><use transform="matrix(0.022222222222222223,0,0,0.022222222222222223,60.17777777777779,0)" xlink:href="#X"/><use transform="matrix(0.022222222222222223,0,0,0.022222222222222223,70.31111111111113,0)" xlink:href="#N"/><use transform="matrix(0.022222222222222223,0,0,0.022222222222222223,83.15555555555558,0)" xlink:href="#P"/><use transform="matrix(0.022222222222222223,0,0,0.022222222222222223,91.95555555555558,0)" xlink:href="#al"/></g><path fill="#fff" d="M66 0v-700h132v289h260v-289h132V0H458v-291H198V0H66" id="am"/><g id="o"><use transform="matrix(0.022222222222222223,0,0,0.022222222222222223,0,0)" xlink:href="#am"/><use transform="matrix(0.022222222222222223,0,0,0.022222222222222223,14.577777777777778,0)" xlink:href="#ah"/><use transform="matrix(0.022222222222222223,0,0,0.022222222222222223,28.26666666666667,0)" xlink:href="#aa"/><use transform="matrix(0.022222222222222223,0,0,0.022222222222222223,47.24444444444443,0)" xlink:href="#N"/><use transform="matrix(0.022222222222222223,0,0,0.022222222222222223,60.08888888888889,0)" xlink:href="#U"/></g><path fill="#fff" d="M436-210c-1-34-17-55-54-54H198V0H66v-700h304c132 3 218 65 218 199 0 84-47 135-104 159v18c53 2 84 40 84 95V0H436v-210zm20-267c0-65-36-104-100-103H198v196h158c60 1 100-36 100-93" id="an"/><g id="p"><use transform="matrix(0.022222222222222223,0,0,0.022222222222222223,0,0)" xlink:href="#an"/><use transform="matrix(0.022222222222222223,0,0,0.022222222222222223,14.044444444444444,0)" xlink:href="#R"/><use transform="matrix(0.022222222222222223,0,0,0.022222222222222223,26.866666666666667,0)" xlink:href="#S"/><use transform="matrix(0.022222222222222223,0,0,0.022222222222222223,38.51111111111111,0)" xlink:href="#T"/><use transform="matrix(0.022222222222222223,0,0,0.022222222222222223,52.111111111111114,0)" xlink:href="#ah"/><use transform="matrix(0.022222222222222223,0,0,0.022222222222222223,65.80000000000001,0)" xlink:href="#P"/><use transform="matrix(0.022222222222222223,0,0,0.022222222222222223,74.2,0)" xlink:href="#ad"/><use transform="matrix(0.022222222222222223,0,0,0.022222222222222223,87.22222222222223,0)" xlink:href="#R"/><use transform="matrix(0.022222222222222223,0,0,0.022222222222222223,100.04444444444445,0)" xlink:href="#S"/></g><path fill="#fff" d="M626-266C629-88 513 15 338 14 163 15 47-88 50-266v-168c-3-178 113-281 288-280 175-1 291 102 288 280v168zm-444 4c-1 95 60 160 156 158 97 2 157-63 156-158v-176c1-95-59-160-156-158-96-2-157 63-156 158v176" id="ao"/><path fill="#fff" d="M52 0v-150l272-226v-16H62v-104h400v150L190-120v16h280V0H52" id="ap"/><g id="q"><use transform="matrix(0.022222222222222223,0,0,0.022222222222222223,0,0)" xlink:href="#ao"/><use transform="matrix(0.022222222222222223,0,0,0.022222222222222223,15.022222222222222,0)" xlink:href="#P"/><use transform="matrix(0.022222222222222223,0,0,0.022222222222222223,23.422222222222224,0)" xlink:href="#Z"/><use transform="matrix(0.022222222222222223,0,0,0.022222222222222223,37.6,0)" xlink:href="#N"/><use transform="matrix(0.022222222222222223,0,0,0.022222222222222223,50.44444444444444,0)" xlink:href="#U"/><use transform="matrix(0.022222222222222223,0,0,0.022222222222222223,64.13333333333333,0)" xlink:href="#O"/><use transform="matrix(0.022222222222222223,0,0,0.022222222222222223,70.04444444444444,0)" xlink:href="#ap"/><use transform="matrix(0.022222222222222223,0,0,0.022222222222222223,81.55555555555554,0)" xlink:href="#N"/><use transform="matrix(0.022222222222222223,0,0,0.022222222222222223,93.60000000000001,0)" xlink:href="#X"/><use transform="matrix(0.022222222222222223,0,0,0.022222222222222223,103.73333333333332,0)" xlink:href="#O"/><use transform="matrix(0.022222222222222223,0,0,0.022222222222222223,109.64444444444443,0)" xlink:href="#T"/><use transform="matrix(0.022222222222222223,0,0,0.022222222222222223,123.24444444444443,0)" xlink:href="#U"/><use transform="matrix(0.022222222222222223,0,0,0.022222222222222223,136.9333333333333,0)" xlink:href="#N"/><use transform="matrix(0.022222222222222223,0,0,0.022222222222222223,149.77777777777774,0)" xlink:href="#W"/></g><path fill="#fff" d="M122 0L30-700h131l68 608h18l88-608h228l88 608h18l68-608h131L776 0H548l-90-622h-18L350 0H122" id="aq"/><path fill="#fff" d="M152-588c-1-66 45-113 110-112h130v104c-42 7-114-20-114 30v70h130v104H278V0H152v-392H26v-104h126v-92" id="ar"/><g id="r"><use transform="matrix(0.022222222222222223,0,0,0.022222222222222223,0,0)" xlink:href="#aq"/><use transform="matrix(0.022222222222222223,0,0,0.022222222222222223,19.822222222222223,0)" xlink:href="#R"/><use transform="matrix(0.022222222222222223,0,0,0.022222222222222223,32.644444444444446,0)" xlink:href="#W"/><use transform="matrix(0.022222222222222223,0,0,0.022222222222222223,38.55555555555556,0)" xlink:href="#ar"/><use transform="matrix(0.022222222222222223,0,0,0.022222222222222223,48.06666666666667,0)" xlink:href="#N"/><use transform="matrix(0.022222222222222223,0,0,0.022222222222222223,60.91111111111111,0)" xlink:href="#P"/><use transform="matrix(0.022222222222222223,0,0,0.022222222222222223,69.31111111111112,0)" xlink:href="#R"/></g><path fill="#fff" d="M622-284C623-96 521 0 334 0H46v-116h92v-468H46v-116h288c187 0 289 96 288 284v132zM490-420c-1-103-48-161-154-160h-66v460h66c105 1 153-58 154-160v-140" id="as"/><g id="s"><use transform="matrix(0.022222222222222223,0,0,0.022222222222222223,0,0)" xlink:href="#as"/><use transform="matrix(0.022222222222222223,0,0,0.022222222222222223,14.8,0)" xlink:href="#O"/><use transform="matrix(0.022222222222222223,0,0,0.022222222222222223,20.711111111111112,0)" xlink:href="#P"/><use transform="matrix(0.022222222222222223,0,0,0.022222222222222223,29.11111111111111,0)" xlink:href="#R"/><use transform="matrix(0.022222222222222223,0,0,0.022222222222222223,41.93333333333334,0)" xlink:href="#ad"/><use transform="matrix(0.022222222222222223,0,0,0.022222222222222223,54.600000000000016,0)" xlink:href="#X"/><use transform="matrix(0.022222222222222223,0,0,0.022222222222222223,64.33333333333334,0)" xlink:href="#T"/><use transform="matrix(0.022222222222222223,0,0,0.022222222222222223,77.93333333333334,0)" xlink:href="#P"/></g><path fill="#fff" d="M172-120c0 166 61 256 218 258v108C157 245 46 121 50-116c3-166-18-369 38-482 52-103 151-158 302-158v108c-156 2-218 92-218 258v270" id="at"/><g id="t"><use transform="matrix(0.017777777777777774,0,0,0.017777777777777774,0,0)" xlink:href="#at"/><use transform="matrix(0.017777777777777774,0,0,0.017777777777777774,6.862222222222221,0)" xlink:href="#L"/><use transform="matrix(0.017777777777777774,0,0,0.017777777777777774,18.311111111111106,0)" xlink:href="#W"/><use transform="matrix(0.017777777777777774,0,0,0.017777777777777774,23.039999999999996,0)" xlink:href="#ah"/><use transform="matrix(0.017777777777777774,0,0,0.017777777777777774,33.9911111111111,0)" xlink:href="#S"/><use transform="matrix(0.017777777777777774,0,0,0.017777777777777774,43.12888888888888,0)" xlink:href="#X"/><use transform="matrix(0.017777777777777774,0,0,0.017777777777777774,50.91555555555554,0)" xlink:href="#R"/><use transform="matrix(0.017777777777777774,0,0,0.017777777777777774,61.17333333333332,0)" xlink:href="#P"/></g><path fill="#fff" d="M174 0L16-496h134L265-92h18l115-404h134L374 0H174" id="au"/><path fill="#fff" d="M0-756c233 0 344 125 340 362-3 166 19 369-38 482C250 192 152 246 0 246V138c157-2 218-91 218-258v-270c0-167-60-256-218-258v-108" id="av"/><g id="u"><use transform="matrix(0.017777777777777774,0,0,0.017777777777777774,0,0)" xlink:href="#an"/><use transform="matrix(0.017777777777777774,0,0,0.017777777777777774,11.235555555555553,0)" xlink:href="#R"/><use transform="matrix(0.017777777777777774,0,0,0.017777777777777774,21.49333333333333,0)" xlink:href="#Q"/><use transform="matrix(0.017777777777777774,0,0,0.017777777777777774,32.83555555555555,0)" xlink:href="#S"/><use transform="matrix(0.017777777777777774,0,0,0.017777777777777774,42.151111111111106,0)" xlink:href="#P"/><use transform="matrix(0.017777777777777774,0,0,0.017777777777777774,48.8711111111111,0)" xlink:href="#R"/><use transform="matrix(0.017777777777777774,0,0,0.017777777777777774,59.12888888888888,0)" xlink:href="#S"/><use transform="matrix(0.017777777777777774,0,0,0.017777777777777774,68.44444444444443,0)" xlink:href="#R"/><use transform="matrix(0.017777777777777774,0,0,0.017777777777777774,78.7022222222222,0)" xlink:href="#U"/><use transform="matrix(0.017777777777777774,0,0,0.017777777777777774,89.40444444444442,0)" xlink:href="#X"/><use transform="matrix(0.017777777777777774,0,0,0.017777777777777774,97.51111111111109,0)" xlink:href="#N"/><use transform="matrix(0.017777777777777774,0,0,0.017777777777777774,107.14666666666665,0)" xlink:href="#X"/><use transform="matrix(0.017777777777777774,0,0,0.017777777777777774,115.25333333333332,0)" xlink:href="#O"/><use transform="matrix(0.017777777777777774,0,0,0.017777777777777774,119.9822222222222,0)" xlink:href="#au"/><use transform="matrix(0.017777777777777774,0,0,0.017777777777777774,129.47555555555553,0)" xlink:href="#R"/><use transform="matrix(0.017777777777777774,0,0,0.017777777777777774,139.7333333333333,0)" xlink:href="#S"/><use transform="matrix(0.017777777777777774,0,0,0.017777777777777774,148.87111111111108,0)" xlink:href="#av"/></g><path fill="#fff" d="M590-257c5 169-90 273-257 271C162 14 57-92 60-270v-160c-3-178 102-284 273-284 164-2 259 99 257 263h-83c2-113-57-191-174-188-122-1-189 82-189 207v164c-2 125 67 207 189 207 120 2 178-77 174-196h83" id="aw"/><path fill="#fff" d="M343-419c-108-10-181 18-181 121V0H83v-489h77v60h14c19-59 87-66 169-62v72" id="ax"/><path fill="#fff" d="M526-121C487-46 426 16 307 14 149 10 57-87 59-250c2-154 91-253 243-253 159 0 243 106 235 279H138c1 100 73 168 171 168 83 2 123-45 149-98zm-69-168c-3-87-66-144-155-144-93 0-152 59-163 144h318" id="ay"/><path fill="#fff" d="M396-73c-30 51-76 89-163 87C129 11 52-35 50-139c0-164 182-151 349-148 9-95-31-149-121-148-80-1-121 42-137 105l-74-24c27-89 94-149 212-149 121-1 199 66 198 185v221c-3 39 39 29 73 30V0c-75 5-147 2-142-73h-12zm-267-68c0 58 52 88 113 87 97 0 163-64 157-169-110 6-267-31-270 82" id="az"/><path fill="#fff" d="M263 0c-55 1-87-32-87-86v-334H29v-69h147v-174h79v174h160v69H255v322c0 20 10 30 29 30h109V0H263" id="aA"/><path fill="#fff" d="M83 0v-489h79V0H83zm100-625c1 34-26 61-60 60-34 1-62-26-61-60-1-35 27-62 61-61 34-1 61 26 60 61" id="aB"/><path fill="#fff" d="M207 0L32-489h84L263-59h14l147-430h84L333 0H207" id="aC"/><path fill="#fff" d="M477-136C486 26 236 48 126-28c-42-28-66-72-75-133l75-17c12 83 64 125 154 126 63 1 119-25 119-81 0-101-166-69-241-111-45-25-85-55-85-119-9-146 222-175 321-103 34 25 56 61 66 106l-74 19c-10-67-55-95-127-96-59 0-107 19-108 73 2 69 80 70 142 83 92 18 182 39 184 145" id="aD"/><g id="v"><use transform="matrix(0.022222222222222223,0,0,0.022222222222222223,0,0)" xlink:href="#aw"/><use transform="matrix(0.022222222222222223,0,0,0.022222222222222223,14.266666666666667,0)" xlink:href="#ax"/><use transform="matrix(0.022222222222222223,0,0,0.022222222222222223,22.244444444444447,0)" xlink:href="#ay"/><use transform="matrix(0.022222222222222223,0,0,0.022222222222222223,35.400000000000006,0)" xlink:href="#az"/><use transform="matrix(0.022222222222222223,0,0,0.022222222222222223,47.466666666666676,0)" xlink:href="#aA"/><use transform="matrix(0.022222222222222223,0,0,0.022222222222222223,57.688888888888904,0)" xlink:href="#aB"/><use transform="matrix(0.022222222222222223,0,0,0.022222222222222223,63.13333333333333,0)" xlink:href="#aC"/><use transform="matrix(0.022222222222222223,0,0,0.022222222222222223,74.66666666666667,0)" xlink:href="#ay"/><use transform="matrix(0.022222222222222223,0,0,0.022222222222222223,87.82222222222222,0)" xlink:href="#aD"/></g><path fill="#fff" d="M564-191C559-52 457 14 313 14 146 14 42-74 48-252h83C121-124 198-60 313-59c96 3 168-45 168-130 0-110-119-111-208-138-106-32-208-64-208-196 0-131 101-191 236-191 160 0 263 81 249 258h-83c13-128-52-179-166-185-109-5-198 88-135 177 53 75 206 66 292 112 60 29 106 73 106 161" id="aE"/><path fill="#fff" d="M290 5C143-2 57-98 59-256c2-149 88-240 231-247 94-3 148 42 180 95h14v-81h75v603c0 54-31 87-86 86H141v-70h311c20 0 30-10 30-30V-86h-14C436-31 381 6 290 5zM139-253c0 112 68 188 172 188 106 0 171-75 171-188 0-108-67-180-171-180-102 0-172 72-172 180" id="aF"/><path fill="#fff" d="M546-172C519-65 445 17 308 14 151 11 57-86 59-250c2-157 95-253 249-253 135 0 212 75 234 187l-77 16c-13-79-63-132-156-132-111 4-173 75-171 192 2 111 63 179 171 183 94 3 146-56 159-132" id="aG"/><g id="w"><use transform="matrix(0.022222222222222223,0,0,0.022222222222222223,0,0)" xlink:href="#aE"/><use transform="matrix(0.022222222222222223,0,0,0.022222222222222223,13.622222222222224,0)" xlink:href="#aA"/><use transform="matrix(0.022222222222222223,0,0,0.022222222222222223,23.844444444444452,0)" xlink:href="#ax"/><use transform="matrix(0.022222222222222223,0,0,0.022222222222222223,31.844444444444452,0)" xlink:href="#az"/><use transform="matrix(0.022222222222222223,0,0,0.022222222222222223,43.91111111111111,0)" xlink:href="#aA"/><use transform="matrix(0.022222222222222223,0,0,0.022222222222222223,53.733333333333334,0)" xlink:href="#ay"/><use transform="matrix(0.022222222222222223,0,0,0.022222222222222223,66.88888888888889,0)" xlink:href="#aF"/><use transform="matrix(0.022222222222222223,0,0,0.022222222222222223,81.15555555555555,0)" xlink:href="#aB"/><use transform="matrix(0.022222222222222223,0,0,0.022222222222222223,86.6,0)" xlink:href="#aG"/></g><path fill="#fff" d="M80 0v-700h84V0H80" id="aH"/><path fill="#fff" d="M322-429c-102 2-160 71-160 183V0H83v-489h77v83h14c27-53 78-95 168-92 122 4 194 76 194 202V0h-79v-290c2-93-48-138-135-139" id="aI"/><g id="x"><use transform="matrix(0.022222222222222223,0,0,0.022222222222222223,0,0)" xlink:href="#aH"/><use transform="matrix(0.022222222222222223,0,0,0.022222222222222223,5.4222222222222225,0)" xlink:href="#aI"/><use transform="matrix(0.022222222222222223,0,0,0.022222222222222223,19.044444444444444,0)" xlink:href="#aB"/><use transform="matrix(0.022222222222222223,0,0,0.022222222222222223,24.488888888888884,0)" xlink:href="#aA"/><use transform="matrix(0.022222222222222223,0,0,0.022222222222222223,34.71111111111111,0)" xlink:href="#aB"/><use transform="matrix(0.022222222222222223,0,0,0.022222222222222223,40.15555555555555,0)" xlink:href="#az"/><use transform="matrix(0.022222222222222223,0,0,0.022222222222222223,52.22222222222222,0)" xlink:href="#aA"/><use transform="matrix(0.022222222222222223,0,0,0.022222222222222223,62.44444444444445,0)" xlink:href="#aB"/><use transform="matrix(0.022222222222222223,0,0,0.022222222222222223,67.88888888888889,0)" xlink:href="#aC"/><use transform="matrix(0.022222222222222223,0,0,0.022222222222222223,79.42222222222222,0)" xlink:href="#ay"/><use transform="matrix(0.022222222222222223,0,0,0.022222222222222223,92.57777777777775,0)" xlink:href="#aD"/></g><path fill="#fff" d="M151 0L37-700h84l99 646h14l129-646h150L641-54h14l99-646h84L724 0H574L445-650h-14L302 0H151" id="aJ"/><path fill="#fff" d="M585-251C587-92 503 7 354 14c-93 3-150-41-180-95h-14V0H83v-700h79v288h14c31-56 88-92 178-91 145 6 229 101 231 252zm-424 2c0 116 66 193 172 193 107 0 171-77 171-193 0-110-67-184-171-184-103 0-172 75-172 184" id="aK"/><g id="y"><use transform="matrix(0.022222222222222223,0,0,0.022222222222222223,0,0)" xlink:href="#aJ"/><use transform="matrix(0.022222222222222223,0,0,0.022222222222222223,19.133333333333336,0)" xlink:href="#ay"/><use transform="matrix(0.022222222222222223,0,0,0.022222222222222223,32.28888888888889,0)" xlink:href="#aK"/><use transform="matrix(0.022222222222222223,0,0,0.022222222222222223,46.6,0)" xlink:href="#aD"/><use transform="matrix(0.022222222222222223,0,0,0.022222222222222223,58.31111111111111,0)" xlink:href="#aB"/><use transform="matrix(0.022222222222222223,0,0,0.022222222222222223,63.75555555555556,0)" xlink:href="#aA"/><use transform="matrix(0.022222222222222223,0,0,0.022222222222222223,73.57777777777778,0)" xlink:href="#ay"/></g><path fill="#fff" d="M609-285C611-93 507 0 320 0H47v-75h98v-550H47v-75h273c186 1 291 94 289 285v130zm-83-133c0-141-68-204-206-205h-91v547h91c137-1 206-66 206-205v-137" id="aL"/><path fill="#fff" d="M83 0v-700h79V0H83" id="aM"/><path fill="#fff" d="M559-251c3 166-91 265-250 265S56-85 59-251c3-156 94-252 250-252s247 96 250 252zm-421 2c0 113 64 192 171 192 108 1 171-78 171-192 0-108-66-184-171-183-104-1-171 76-171 183" id="aN"/><path fill="#fff" d="M354 14c-90 1-147-36-178-91h-14v277H83v-689h77v81h14c30-54 87-98 180-95 148 8 233 105 231 265C583-87 500 8 354 14zM161-249c0 116 66 193 172 193 107 0 171-77 171-193 0-110-67-184-171-184-103 0-172 75-172 184" id="aO"/><path fill="#fff" d="M285-430c-76 0-123 54-123 136V0H83v-489h77v61h14c23-39 66-70 136-70 74 0 122 38 144 86h14c25-50 69-88 148-86 104 3 166 63 166 167V0h-79v-324c1-65-42-107-108-106-76 0-123 54-123 136V0h-79v-324c1-65-42-107-108-106" id="aP"/><g id="z"><use transform="matrix(0.022222222222222223,0,0,0.022222222222222223,0,0)" xlink:href="#aL"/><use transform="matrix(0.022222222222222223,0,0,0.022222222222222223,14.733333333333334,0)" xlink:href="#ay"/><use transform="matrix(0.022222222222222223,0,0,0.022222222222222223,27.444444444444446,0)" xlink:href="#aC"/><use transform="matrix(0.022222222222222223,0,0,0.022222222222222223,38.97777777777778,0)" xlink:href="#ay"/><use transform="matrix(0.022222222222222223,0,0,0.022222222222222223,52.13333333333333,0)" xlink:href="#aM"/><use transform="matrix(0.022222222222222223,0,0,0.022222222222222223,57.57777777777778,0)" xlink:href="#aN"/><use transform="matrix(0.022222222222222223,0,0,0.022222222222222223,71.31111111111112,0)" xlink:href="#aO"/><use transform="matrix(0.022222222222222223,0,0,0.022222222222222223,85.62222222222223,0)" xlink:href="#aP"/><use transform="matrix(0.022222222222222223,0,0,0.022222222222222223,104.73333333333336,0)" xlink:href="#ay"/><use transform="matrix(0.022222222222222223,0,0,0.022222222222222223,117.8888888888889,0)" xlink:href="#aI"/><use transform="matrix(0.022222222222222223,0,0,0.022222222222222223,131.20000000000002,0)" xlink:href="#aA"/></g><path fill="#fff" d="M80 0v-700h431v76H164v234h319v76H164v238h352V0H80" id="aQ"/><path fill="#fff" d="M43 0l196-248L49-489h95l146 189h14l145-189h96L354-248 550 0h-96L304-195h-14L140 0H43" id="aR"/><g id="A"><use transform="matrix(0.022222222222222223,0,0,0.022222222222222223,0,0)" xlink:href="#aQ"/><use transform="matrix(0.022222222222222223,0,0,0.022222222222222223,12.511111111111111,0)" xlink:href="#aR"/><use transform="matrix(0.022222222222222223,0,0,0.022222222222222223,25.68888888888889,0)" xlink:href="#aA"/><use transform="matrix(0.022222222222222223,0,0,0.022222222222222223,35.51111111111111,0)" xlink:href="#ay"/><use transform="matrix(0.022222222222222223,0,0,0.022222222222222223,48.66666666666667,0)" xlink:href="#ax"/><use transform="matrix(0.022222222222222223,0,0,0.022222222222222223,57.044444444444444,0)" xlink:href="#aI"/><use transform="matrix(0.022222222222222223,0,0,0.022222222222222223,70.66666666666667,0)" xlink:href="#az"/><use transform="matrix(0.022222222222222223,0,0,0.022222222222222223,83.44444444444446,0)" xlink:href="#aM"/></g><path fill="#fff" d="M472-225c0-41-23-62-66-62H164V0H80v-700h283c131 3 220 63 220 197 0 88-49 142-111 163v14c51 2 83 35 83 91V0h-83v-225zm27-265c1-89-54-135-144-134H164v261h191c87 1 143-44 144-127" id="aS"/><g id="B"><use transform="matrix(0.022222222222222223,0,0,0.022222222222222223,0,0)" xlink:href="#aS"/><use transform="matrix(0.022222222222222223,0,0,0.022222222222222223,14.022222222222222,0)" xlink:href="#ay"/><use transform="matrix(0.022222222222222223,0,0,0.022222222222222223,27.177777777777777,0)" xlink:href="#aM"/><use transform="matrix(0.022222222222222223,0,0,0.022222222222222223,32.62222222222222,0)" xlink:href="#az"/><use transform="matrix(0.022222222222222223,0,0,0.022222222222222223,44.68888888888888,0)" xlink:href="#aA"/><use transform="matrix(0.022222222222222223,0,0,0.022222222222222223,54.911111111111104,0)" xlink:href="#aB"/><use transform="matrix(0.022222222222222223,0,0,0.022222222222222223,60.35555555555555,0)" xlink:href="#aN"/><use transform="matrix(0.022222222222222223,0,0,0.022222222222222223,74.08888888888887,0)" xlink:href="#aI"/><use transform="matrix(0.022222222222222223,0,0,0.022222222222222223,87.7111111111111,0)" xlink:href="#aD"/></g><path fill="#fff" d="M79-221v-73h296v73H79" id="aT"/><g id="C"><use transform="matrix(0.022222222222222223,0,0,0.022222222222222223,0,0)" xlink:href="#aE"/><use transform="matrix(0.022222222222222223,0,0,0.022222222222222223,13.622222222222224,0)" xlink:href="#aN"/><use transform="matrix(0.022222222222222223,0,0,0.022222222222222223,27.355555555555558,0)" xlink:href="#aG"/><use transform="matrix(0.022222222222222223,0,0,0.022222222222222223,40.644444444444446,0)" xlink:href="#aB"/><use transform="matrix(0.022222222222222223,0,0,0.022222222222222223,46.08888888888889,0)" xlink:href="#aN"/><use transform="matrix(0.022222222222222223,0,0,0.022222222222222223,59.82222222222222,0)" xlink:href="#aT"/><use transform="matrix(0.022222222222222223,0,0,0.022222222222222223,69.93333333333334,0)" xlink:href="#aw"/><use transform="matrix(0.022222222222222223,0,0,0.022222222222222223,84.2,0)" xlink:href="#aB"/><use transform="matrix(0.022222222222222223,0,0,0.022222222222222223,89.64444444444445,0)" xlink:href="#aC"/><use transform="matrix(0.022222222222222223,0,0,0.022222222222222223,101.62222222222222,0)" xlink:href="#aB"/><use transform="matrix(0.022222222222222223,0,0,0.022222222222222223,107.06666666666668,0)" xlink:href="#aG"/></g><path fill="#fff" d="M439-83c-27 53-79 95-169 92C149 5 78-67 77-193v-296h79v290c-2 93 48 138 135 139 101-2 160-72 160-183v-246h79V0h-77v-83h-14" id="aU"/><g id="D"><use transform="matrix(0.022222222222222223,0,0,0.022222222222222223,0,0)" xlink:href="#aw"/><use transform="matrix(0.022222222222222223,0,0,0.022222222222222223,14.266666666666667,0)" xlink:href="#aM"/><use transform="matrix(0.022222222222222223,0,0,0.022222222222222223,19.711111111111112,0)" xlink:href="#aU"/><use transform="matrix(0.022222222222222223,0,0,0.022222222222222223,33.31111111111111,0)" xlink:href="#aD"/><use transform="matrix(0.022222222222222223,0,0,0.022222222222222223,44.77777777777777,0)" xlink:href="#aA"/><use transform="matrix(0.022222222222222223,0,0,0.022222222222222223,54.599999999999994,0)" xlink:href="#ay"/><use transform="matrix(0.022222222222222223,0,0,0.022222222222222223,67.75555555555555,0)" xlink:href="#ax"/></g><g id="E"><use transform="matrix(0.022222222222222223,0,0,0.022222222222222223,0,0)" xlink:href="#aS"/><use transform="matrix(0.022222222222222223,0,0,0.022222222222222223,14.022222222222222,0)" xlink:href="#ay"/><use transform="matrix(0.022222222222222223,0,0,0.022222222222222223,27.177777777777777,0)" xlink:href="#aO"/><use transform="matrix(0.022222222222222223,0,0,0.022222222222222223,41.48888888888889,0)" xlink:href="#ax"/><use transform="matrix(0.022222222222222223,0,0,0.022222222222222223,49.46666666666667,0)" xlink:href="#ay"/><use transform="matrix(0.022222222222222223,0,0,0.022222222222222223,62.62222222222223,0)" xlink:href="#aD"/><use transform="matrix(0.022222222222222223,0,0,0.022222222222222223,74.33333333333334,0)" xlink:href="#ay"/><use transform="matrix(0.022222222222222223,0,0,0.022222222222222223,87.4888888888889,0)" xlink:href="#aI"/><use transform="matrix(0.022222222222222223,0,0,0.022222222222222223,100.8,0)" xlink:href="#aA"/><use transform="matrix(0.022222222222222223,0,0,0.022222222222222223,110.95555555555556,0)" xlink:href="#az"/><use transform="matrix(0.022222222222222223,0,0,0.022222222222222223,123.02222222222225,0)" xlink:href="#aA"/><use transform="matrix(0.022222222222222223,0,0,0.022222222222222223,133.24444444444447,0)" xlink:href="#aB"/><use transform="matrix(0.022222222222222223,0,0,0.022222222222222223,138.68888888888893,0)" xlink:href="#aC"/><use transform="matrix(0.022222222222222223,0,0,0.022222222222222223,150.22222222222226,0)" xlink:href="#ay"/></g><path fill="#fff" d="M25 0l216-700h148L605 0h-87l-54-177H166L112 0H25zm162-253h255L322-649h-14" id="aV"/><path fill="#fff" d="M470-81c-32 54-86 98-180 95C141 7 57-91 59-251c3-151 86-246 231-252 90-1 147 35 178 91h14v-288h79V0h-77v-81h-14zM139-249c0 116 66 193 172 193 107 0 171-77 171-193 0-110-67-184-171-184-103 0-172 75-172 184" id="aW"/><g id="F"><use transform="matrix(0.022222222222222223,0,0,0.022222222222222223,0,0)" xlink:href="#aV"/><use transform="matrix(0.022222222222222223,0,0,0.022222222222222223,14,0)" xlink:href="#aG"/><use transform="matrix(0.022222222222222223,0,0,0.022222222222222223,27.28888888888889,0)" xlink:href="#az"/><use transform="matrix(0.022222222222222223,0,0,0.022222222222222223,39.75555555555556,0)" xlink:href="#aW"/><use transform="matrix(0.022222222222222223,0,0,0.022222222222222223,54.06666666666667,0)" xlink:href="#ay"/><use transform="matrix(0.022222222222222223,0,0,0.022222222222222223,67.22222222222223,0)" xlink:href="#aP"/><use transform="matrix(0.022222222222222223,0,0,0.022222222222222223,86.33333333333334,0)" xlink:href="#aB"/><use transform="matrix(0.022222222222222223,0,0,0.022222222222222223,91.77777777777779,0)" xlink:href="#aG"/></g><path fill="#fff" d="M592-234C591-71 495 14 333 14S75-71 75-234v-466h83v467c-1 113 64 172 175 172s175-59 175-172v-467h84v466" id="aX"/><g id="G"><use transform="matrix(0.022222222222222223,0,0,0.022222222222222223,0,0)" xlink:href="#aE"/><use transform="matrix(0.022222222222222223,0,0,0.022222222222222223,13.622222222222224,0)" xlink:href="#aH"/><use transform="matrix(0.022222222222222223,0,0,0.022222222222222223,19.044444444444444,0)" xlink:href="#aX"/></g><path fill="#fff" d="M196 0L18-700h136L302-85h14l148-615h136L422 0H196" id="aY"/><g id="H"><use transform="matrix(0.028888888888888884,0,0,0.028888888888888884,0,0)" xlink:href="#aY"/><use transform="matrix(0.028888888888888884,0,0,0.028888888888888884,17.85333333333333,0)" xlink:href="#O"/><use transform="matrix(0.028888888888888884,0,0,0.028888888888888884,25.537777777777777,0)" xlink:href="#ad"/><use transform="matrix(0.028888888888888884,0,0,0.028888888888888884,42.46666666666666,0)" xlink:href="#R"/></g><g id="I"><use transform="matrix(0.028888888888888884,0,0,0.028888888888888884,0,0)" xlink:href="#L"/><use transform="matrix(0.028888888888888884,0,0,0.028888888888888884,18.604444444444443,0)" xlink:href="#M"/><use transform="matrix(0.028888888888888884,0,0,0.028888888888888884,36.39999999999999,0)" xlink:href="#N"/><use transform="matrix(0.028888888888888884,0,0,0.028888888888888884,53.097777777777765,0)" xlink:href="#O"/><use transform="matrix(0.028888888888888884,0,0,0.028888888888888884,60.78222222222221,0)" xlink:href="#P"/><use transform="matrix(0.028888888888888884,0,0,0.028888888888888884,72.2222222222222,0)" xlink:href="#Q"/><use transform="matrix(0.028888888888888884,0,0,0.028888888888888884,90.65333333333331,0)" xlink:href="#R"/><use transform="matrix(0.028888888888888884,0,0,0.028888888888888884,107.3222222222222,0)" xlink:href="#P"/><use transform="matrix(0.028888888888888884,0,0,0.028888888888888884,118.41555555555554,0)" xlink:href="#S"/><use transform="matrix(0.028888888888888884,0,0,0.028888888888888884,133.5533333333333,0)" xlink:href="#T"/><use transform="matrix(0.028888888888888884,0,0,0.028888888888888884,151.23333333333332,0)" xlink:href="#U"/></g><g id="J"><use transform="matrix(0.022222222222222223,0,0,0.022222222222222223,0,0)" xlink:href="#aE"/><use transform="matrix(0.022222222222222223,0,0,0.022222222222222223,13.622222222222224,0)" xlink:href="#aO"/><use transform="matrix(0.022222222222222223,0,0,0.022222222222222223,27.93333333333334,0)" xlink:href="#ay"/><use transform="matrix(0.022222222222222223,0,0,0.022222222222222223,41.088888888888896,0)" xlink:href="#aG"/><use transform="matrix(0.022222222222222223,0,0,0.022222222222222223,54.37777777777779,0)" xlink:href="#aB"/><use transform="matrix(0.022222222222222223,0,0,0.022222222222222223,59.82222222222224,0)" xlink:href="#az"/><use transform="matrix(0.022222222222222223,0,0,0.022222222222222223,72.60000000000001,0)" xlink:href="#aM"/></g><g id="K"><use transform="matrix(0.022222222222222223,0,0,0.022222222222222223,0,0)" xlink:href="#aH"/><use transform="matrix(0.022222222222222223,0,0,0.022222222222222223,5.4222222222222225,0)" xlink:href="#aI"/><use transform="matrix(0.022222222222222223,0,0,0.022222222222222223,18.733333333333334,0)" xlink:href="#aA"/><use transform="matrix(0.022222222222222223,0,0,0.022222222222222223,28.555555555555557,0)" xlink:href="#ay"/><use transform="matrix(0.022222222222222223,0,0,0.022222222222222223,41.711111111111116,0)" xlink:href="#ax"/><use transform="matrix(0.022222222222222223,0,0,0.022222222222222223,49.688888888888904,0)" xlink:href="#ay"/><use transform="matrix(0.022222222222222223,0,0,0.022222222222222223,62.844444444444456,0)" xlink:href="#aD"/><use transform="matrix(0.022222222222222223,0,0,0.022222222222222223,74.31111111111112,0)" xlink:href="#aA"/></g></defs></g></svg>